<?xml version="1.0" encoding="UTF-8" standalone="no"?>
<svg width="654px" height="141px" viewBox="0 0 654 141" version="1.1" xmlns="http://www.w3.org/2000/svg" xmlns:xlink="http://www.w3.org/1999/xlink">
    <!-- Generator: Sketch 3.6.1 (26313) - http://www.bohemiancoding.com/sketch -->
    <title>workflow</title>
    <desc>Created with Sketch.</desc>
    <defs>
        <radialGradient cx="17.9974183%" cy="25.9963022%" fx="17.9974183%" fy="25.9963022%" r="65.3683878%" id="radialGradient-1">
            <stop stop-color="#5FB0E2" offset="0%"></stop>
            <stop stop-color="#45A1D7" offset="9.123212%"></stop>
            <stop stop-color="#2C93CD" offset="20.8%"></stop>
            <stop stop-color="#1888C4" offset="33.83%"></stop>
            <stop stop-color="#0B80BE" offset="48.76%"></stop>
            <stop stop-color="#027BBB" offset="67.24%"></stop>
            <stop stop-color="#007ABA" offset="100%"></stop>
        </radialGradient>
    </defs>
    <g id="Page-1" stroke="none" stroke-width="1" fill="none" fill-rule="evenodd">
        <g id="Project" transform="translate(-196.000000, -1670.000000)">
            <g id="workflow" transform="translate(196.000000, 1665.000000)">
                <g id="development">
                    <path d="M283.126017,75 L226,75 L226,80 L214,80 L214,68 L226,68 L226,74 L283,74 C283,71.790861 284.790861,70 287,70 C289.209139,70 291,71.790861 291,74 C291,76.209139 289.209139,78 287,78 C285.136161,78 283.57006,76.7252272 283.126017,75 Z" id="Combined-Shape" fill-opacity="0.12" fill="#000000"></path>
                    <g id="box">
                        <g id="Group-3" transform="translate(0.000000, 47.000000)">
                            <g id="react">
                                <g id="Group">
                                    <path d="M0.141398271,21.5404367 C0.141398271,25.1472695 3.6593631,28.5143945 9.205725,30.412289 C8.09816829,35.9945221 9.00723135,40.493764 12.0436012,42.2469319 C15.1646751,44.0488335 19.8143055,42.8015408 24.227436,38.9395155 C28.5292247,42.6456343 32.8769492,44.1041773 35.9104898,42.3460272 C39.0285118,40.5388945 39.9769468,35.7344933 38.8387598,29.9780218 C44.6155894,28.0658693 47.8469882,25.1947469 47.8469882,21.5404367 C47.8469882,18.0172249 44.3224961,14.9691722 38.850942,13.083405 C40.0762444,7.08902801 39.03801,2.69896391 35.875953,0.873395013 C32.8273986,-0.886566443 28.4292036,0.647419395 24.0641486,4.45059936 C19.5230507,0.413824374 15.1682526,-0.818653689 12.009261,1.01223599 C8.96366957,2.77720368 8.09458305,7.35820936 9.20572498,13.0437873 C3.84664303,14.9144231 0.141398271,18.0313147 0.141398271,21.5404367 L0.141398271,21.5404367 Z" id="Shape" fill="#FFFFFF"></path>
                                    <path d="M37.6921037,14.9560801 C37.2526001,14.8046288 36.7971846,14.6613314 36.3282701,14.5258104 C36.4053418,14.2109035 36.4760784,13.9000734 36.5389725,13.5945284 C37.5713685,8.57738319 36.896352,4.53553608 34.5913716,3.20478802 C32.3811846,1.92877685 28.7665924,3.25922292 25.1160283,6.4398512 C24.7649835,6.74569827 24.4129583,7.06951414 24.0610841,7.40888281 C23.8266268,7.18434833 23.5925468,6.96736378 23.3590701,6.75981661 C19.5331721,3.35888178 15.6983001,1.92568138 13.3955821,3.26027991 C11.1875067,4.53999054 10.5336057,8.33971186 11.4629128,13.0944975 C11.5526536,13.5537588 11.6575522,14.0227596 11.776176,14.4996122 C11.2334328,14.653857 10.7094674,14.8182941 10.2081257,14.9932257 C5.72267085,16.5588516 2.85805498,19.012574 2.85805498,21.5577259 C2.85805498,24.18638 5.93322231,26.8229614 10.605172,28.4216558 C10.9738633,28.547815 11.3564305,28.6671036 11.7506866,28.7803523 C11.6227117,29.2960872 11.511403,29.8014784 11.417967,30.2944124 C10.5318712,34.9666775 11.2238555,38.6766302 13.4260487,39.9482625 C15.7007133,41.2614948 19.5182404,39.9116454 23.2355443,36.6585379 C23.5293512,36.4013878 23.8242137,36.128685 24.119604,35.8428452 C24.502473,36.2119605 24.8847383,36.561295 25.2649678,36.8889614 C28.8656089,39.990995 32.4218319,41.2436016 34.621989,39.9684209 C36.8943911,38.6514134 37.6329051,34.6660398 36.6741114,29.8171823 C36.6008859,29.4468589 36.51567,29.0685326 36.4199717,28.6834871 C36.6880628,28.6041372 36.9512522,28.5222207 37.2078806,28.4370577 C42.0648171,26.8259814 45.2248986,24.221487 45.2248986,21.5577259 C45.2248986,19.0033632 42.2679024,16.5331064 37.6921037,14.9560801 L37.6921037,14.9560801 L37.6921037,14.9560801 L37.6921037,14.9560801 Z" id="Shape" fill="#53C1DE"></path>
                                    <path d="M36.6386677,26.7171116 C36.4070008,26.7938941 36.1693009,26.8681099 35.9270762,26.9400605 C35.3908941,25.2406502 34.6672365,23.4335779 33.7816686,21.5665594 C34.6267401,19.7440098 35.3224194,17.9600404 35.8435946,16.2716528 C36.2769898,16.3972079 36.6976402,16.5296334 37.1029821,16.6693824 C41.0235223,18.0205907 43.4150008,20.0183737 43.4150008,21.5577259 C43.4150008,23.1974166 40.8322766,25.3259641 36.6386677,26.7171116 L36.6386677,26.7171116 L36.6386677,26.7171116 L36.6386677,26.7171116 Z M34.8986018,30.1690837 C35.3225702,32.3131842 35.3831263,34.2517004 35.1022905,35.7671194 C34.8499607,37.1288222 34.3425105,38.0366994 33.7150793,38.4003034 C32.3799024,39.1740187 29.524638,38.1682945 26.4453229,35.5154053 C26.0923174,35.2112947 25.7367478,34.8865728 25.3800471,34.5429005 C26.5738256,33.2357838 27.7669254,31.7162125 28.9313685,30.0285798 C30.979494,29.846627 32.9145013,29.5491602 34.6692726,29.1430503 C34.7556953,29.4920828 34.8324651,29.834396 34.8986018,30.1690837 L34.8986018,30.1690837 L34.8986018,30.1690837 L34.8986018,30.1690837 Z M17.3018696,38.2665944 C15.9973857,38.7278188 14.9584289,38.7410311 14.3303943,38.3784841 C12.994011,37.6068073 12.4384478,34.6280638 13.1962671,30.6323466 C13.2830668,30.1747461 13.3863818,29.7046886 13.505458,29.224212 C15.2409992,29.6084271 17.1618287,29.8849049 19.2148562,30.0515316 C20.3871422,31.7029247 21.6147054,33.2208351 22.8517706,34.5499221 C22.5814926,34.8111491 22.3122701,35.0598434 22.0445561,35.2941927 C20.4007918,36.7326781 18.7535586,37.7532756 17.3018696,38.2665944 L17.3018696,38.2665944 L17.3018696,38.2665944 L17.3018696,38.2665944 Z M11.1905232,26.7070701 C9.12467557,26.0001716 7.41862059,25.0814224 6.24920031,24.0788693 C5.19840379,23.1779379 4.66787745,22.2834994 4.66787745,21.5577259 C4.66787745,20.0132398 6.96788061,18.0432404 10.8038837,16.704263 C11.2693291,16.5417888 11.7565687,16.3886765 12.262209,16.2448506 C12.7923582,17.9713652 13.4878115,19.7764744 14.3270762,21.6018175 C13.4769521,23.4542645 12.7716198,25.2881392 12.2362671,27.0348874 C11.8757958,26.9311516 11.5265609,26.8219799 11.1905232,26.7070701 L11.1905232,26.7070701 L11.1905232,26.7070701 L11.1905232,26.7070701 Z M13.2391013,12.7465219 C12.4428971,8.67273864 12.9716889,5.59962114 14.3023409,4.8284728 C15.7197172,4.00696652 18.8539324,5.17826035 22.1572978,8.11479989 C22.3684524,8.30249079 22.5804368,8.49893958 22.7930244,8.70218331 C21.5620676,10.0254569 20.3457409,11.531967 19.1838619,13.1736206 C17.191315,13.358518 15.2839843,13.6555317 13.5303441,14.0532612 C13.4200911,13.6092507 13.322432,13.1730166 13.2391013,12.7465219 L13.2391013,12.7465219 L13.2391013,12.7465219 L13.2391013,12.7465219 Z M31.5142434,17.2643157 C31.0950261,16.5393728 30.6646472,15.8315682 30.2258979,15.1430915 C31.5776655,15.3141726 32.8727979,15.541274 34.0890495,15.8191864 C33.7239024,16.9907822 33.2687888,18.215756 32.7330589,19.4715333 C32.3487574,18.7410791 31.9422844,18.0045849 31.5142434,17.2643157 L31.5142434,17.2643157 L31.5142434,17.2643157 L31.5142434,17.2643157 Z M24.0616873,9.99714477 C24.8965027,10.9026061 25.7325247,11.9135397 26.5548217,13.0103914 C25.7261901,12.9712074 24.8873023,12.9508226 24.0414769,12.9508226 C23.2036449,12.9508226 22.3709411,12.9707544 21.5474376,13.0092589 C22.3705641,11.9225996 23.2138256,10.913025 24.0616873,9.99714477 L24.0616873,9.99714477 L24.0616873,9.99714477 L24.0616873,9.99714477 Z M16.5613951,17.2768485 C16.14263,18.0038299 15.7436983,18.7363227 15.3654297,19.4701745 C14.8383723,18.218776 14.3874815,16.9882153 14.0191673,15.8000096 C15.2279529,15.5291941 16.5169772,15.3077552 17.8601477,15.1399205 C17.4152145,15.8347392 16.9812914,16.5477532 16.5613951,17.2766975 L16.5613951,17.2768485 L16.5613951,17.2768485 L16.5613951,17.2768485 Z M17.8988342,28.1047859 C16.511095,27.9497861 15.2026897,27.7397477 13.9942058,27.4764064 C14.3684022,26.2669856 14.8292474,25.0101513 15.3674658,23.7317995 C15.7467148,24.4651228 16.1472302,25.1979176 16.5685593,25.9264845 L16.5686347,25.9264845 C16.9978068,26.6687166 17.4424383,27.3957734 17.8988342,28.1047859 L17.8988342,28.1047859 L17.8988342,28.1047859 L17.8988342,28.1047859 Z M24.1117612,33.2460517 C23.253945,32.3194505 22.3983157,31.2944742 21.5626708,30.19196 C22.3738821,30.2238206 23.2009299,30.2401286 24.0414769,30.2401286 C24.9050244,30.2401286 25.7586928,30.2206497 26.5989381,30.1832021 C25.7739261,31.3055727 24.9409207,32.3321345 24.1117612,33.2460517 L24.1117612,33.2460517 L24.1117612,33.2460517 L24.1117612,33.2460517 Z M32.7503284,23.6666438 C33.3166001,24.9588118 33.7939607,26.2090777 34.1729835,27.3978874 C32.9445908,27.6784422 31.6183127,27.9044113 30.2209208,28.0723215 C30.660726,27.3745581 31.0948751,26.6545981 31.521483,25.914027 C31.9530684,25.1647736 32.3628594,24.4143876 32.7503284,23.6666438 L32.7503284,23.6666438 L32.7503284,23.6666438 L32.7503284,23.6666438 Z M29.9537344,25.0087922 C29.2914626,26.1584178 28.6115443,27.2558734 27.9212946,28.2917975 C26.6640941,28.3817923 25.3652662,28.4281489 24.0414769,28.4281489 C22.7230417,28.4281489 21.4405781,28.3871527 20.2056246,28.3068971 C19.4875476,27.2573836 18.7928484,26.1566814 18.1347997,25.0186826 L18.1349505,25.0186826 C17.4786363,23.8837794 16.8745829,22.7392877 16.3272396,21.6012136 C16.874432,20.4604968 17.4769018,19.3147217 18.1294454,18.1818569 L18.1292946,18.1820834 C18.7835726,17.0461986 19.4721634,15.9508569 20.183604,14.9079116 C21.4435946,14.8125562 22.7356356,14.7628023 24.0414015,14.7628023 L24.0414769,14.7628023 C25.3531249,14.7628023 26.6468248,14.8129337 27.9064382,14.9091196 C28.6070196,15.9444395 29.2909348,17.0362327 29.9477769,18.1722685 C30.6120849,19.3210637 31.2223221,20.4592132 31.7741901,21.5754684 C31.2239812,22.7109 30.6151014,23.8605257 29.9537344,25.0087922 L29.9537344,25.0087922 L29.9537344,25.0087922 L29.9537344,25.0087922 Z M33.6873276,4.7745664 C35.1060613,5.5936567 35.6577784,8.89704662 34.7664037,13.2288105 C34.7095427,13.5052129 34.6455178,13.7867492 34.5759874,14.0720605 C32.8182748,13.6660261 30.9095867,13.3638785 28.9112334,13.1761876 C27.7470919,11.5164897 26.5407195,10.0076391 25.3298224,8.7013528 C25.6553779,8.38780484 25.9804807,8.08882819 26.3042261,7.80668786 C29.4320314,5.08154595 32.3553936,4.00560753 33.6873276,4.7745664 L33.6873276,4.7745664 L33.6873276,4.7745664 L33.6873276,4.7745664 Z" id="Shape" fill="#FFFFFF"></path>
                                    <path d="M24.0414769,17.77016 C26.1308531,17.77016 27.8246912,19.4658709 27.8246912,21.5577259 C27.8246912,23.6495053 26.1308531,25.3452921 24.0414769,25.3452921 C21.9521006,25.3452921 20.2582624,23.6495053 20.2582624,21.5577259 C20.2582624,19.4658709 21.9521006,17.77016 24.0414769,17.77016" id="Shape" fill="#53C1DE"></path>
                                </g>
                            </g>
                            <g id="sass" transform="translate(84.000000, 6.000000)" fill="#CD6799">
                                <g id="Group">
                                    <path d="M36.7135398,18.4189435 C35.2291438,18.4267152 33.9390407,18.7842137 32.8587735,19.3126897 C32.4624165,18.5277475 32.0660595,17.8282938 31.9961142,17.3153613 C31.9183972,16.7169398 31.8251367,16.3516697 31.9183972,15.6366727 C32.0116575,14.9216758 32.4313297,13.9035823 32.423558,13.8258652 C32.4157863,13.7481481 32.3302975,13.382878 31.4754098,13.3751062 C30.6205222,13.3673345 29.88221,13.5383121 29.7967213,13.7636916 C29.7112325,13.989071 29.5480267,14.5020036 29.4392228,15.0304797 C29.2915603,15.8076503 27.7294475,18.5821493 26.8357013,20.0354583 C26.5481482,19.4681238 26.2994535,18.9707347 26.2450517,18.5743777 C26.1673345,17.9759563 26.074074,17.6106862 26.1673345,16.8956892 C26.260595,16.1806922 26.6802672,15.1625987 26.6724955,15.0848816 C26.6647237,15.0071645 26.579235,14.6418943 25.7243473,14.6341226 C24.8694597,14.6263509 24.1311475,14.7973285 24.0456588,15.0227079 C23.96017,15.2480874 23.8669095,15.7765634 23.6881603,16.289496 C23.509411,16.8024287 21.4343655,21.4343655 20.8903462,22.6312083 C20.6105647,23.245173 20.3696418,23.7347905 20.1986642,24.0689738 L20.1986642,24.0689738 C20.1986642,24.0689738 20.1908925,24.092289 20.1675773,24.1311475 C20.019915,24.4187007 19.9344262,24.5741348 19.9344262,24.5741348 C19.9344262,24.5741348 19.9344262,24.5741348 19.9344262,24.5819065 C19.8178507,24.7917425 19.6935033,24.9860352 19.6313297,24.9860352 C19.5846995,24.9860352 19.4992107,24.4264723 19.6468732,23.6648452 C19.9577413,22.056102 20.6960535,19.5536127 20.6882817,19.4681238 C20.6882817,19.4214937 20.8281725,18.986278 20.206436,18.7608987 C19.6002428,18.5355192 19.3826352,18.908561 19.3282332,18.908561 C19.2738312,18.908561 19.2349727,19.04068 19.2349727,19.04068 C19.2349727,19.04068 19.9111112,16.2273224 17.9448695,16.2273224 C16.7169398,16.2273224 15.0227079,17.5718275 14.1833637,18.7842137 C13.6548877,19.0717668 12.5279903,19.6857317 11.3233758,20.3463267 C10.8648452,20.602793 10.3907711,20.8592593 9.94778385,21.1001822 C9.91669702,21.0690953 9.8856102,21.0302368 9.85452338,20.99915 C7.4763813,18.457802 3.07759563,16.6625379 3.26411658,13.2507589 C3.33406193,12.007286 3.76150577,8.7431694 11.7119611,4.77959927 C18.2557377,1.55434123 23.4627808,2.44808743 24.3642987,4.4298725 C25.654402,7.25877353 21.5742562,12.5124469 14.8128719,13.2740741 C12.2326654,13.5616272 10.8803886,12.5668488 10.5384335,12.1938069 C10.180935,11.8052216 10.1265331,11.7819065 9.99441408,11.8596235 C9.77680632,11.9761991 9.91669702,12.3259259 9.99441408,12.5279903 C10.1964784,13.0564663 11.028051,13.989071 12.4347298,14.4476017 C13.6782028,14.8517304 16.7013965,15.0771099 20.36187,13.6626594 C24.4575592,12.0772313 27.6595022,7.67067395 26.7191257,3.97911353 C25.7787492,0.233151183 19.5613843,-1.00255009 13.6782028,1.08803886 C10.180935,2.33151183 6.38834243,4.28998178 3.66047358,6.8391014 C0.419672132,9.87006678 -0.0932604737,12.5046752 0.116575592,13.6082574 C0.870431087,17.5251973 6.27176685,20.074317 8.43230115,21.9628415 C8.32349727,22.0250152 8.22246508,22.0794172 8.13697632,22.1260473 C7.05670917,22.662295 2.93770492,24.8150577 1.91183972,27.0921675 C0.746083788,29.672374 2.09836065,31.52204 2.99210687,31.7707347 C5.76660595,32.5401335 8.6188221,31.1567698 10.1498482,28.8718883 C11.6808743,26.5870067 11.4943534,23.618215 10.7871281,22.2581663 C10.7793564,22.242623 10.7715847,22.2270795 10.7560413,22.2115362 C11.0358227,22.0483303 11.3233758,21.8773528 11.6031572,21.714147 C12.1549484,21.3877353 12.6989678,21.0846387 13.1652702,20.8359442 C12.9010322,21.5587128 12.7067395,22.4213722 12.613479,23.6648452 C12.4969035,25.125926 13.0953248,27.0222222 13.8802671,27.768306 C14.2299939,28.0947177 14.6418943,28.1024893 14.9061324,28.1024893 C15.8231937,28.1024893 16.2350941,27.3408622 16.6936248,26.4393443 C17.2531877,25.335762 17.7583485,24.0534305 17.7583485,24.0534305 C17.7583485,24.0534305 17.1288403,27.5196113 18.8386157,27.5196113 C19.4603522,27.5196113 20.0898603,26.711354 20.3696418,26.2994535 L20.3696418,26.3072253 C20.3696418,26.3072253 20.3851852,26.2839102 20.416272,26.2295082 C20.4784457,26.128476 20.5173042,26.0663023 20.5173042,26.0663023 L20.5173042,26.050759 C20.7659988,25.6155433 21.3255617,24.6285367 22.1571342,22.9887067 C23.2296297,20.8748027 24.2632665,18.2324227 24.2632665,18.2324227 C24.2632665,18.2324227 24.356527,18.8774742 24.675167,19.9499697 C24.861688,20.5794778 25.2502732,21.2711597 25.5611415,21.9395263 C25.3124468,22.2892532 25.1570128,22.4835458 25.1570128,22.4835458 C25.1570128,22.4835458 25.1570128,22.4835458 25.1647845,22.4913175 C24.9627202,22.7555555 24.7451123,23.0431087 24.5041895,23.3228902 C23.6570735,24.3332118 22.6467517,25.4911962 22.506861,25.8253795 C22.3436552,26.2217365 22.3825137,26.5092897 22.6933818,26.7424408 C22.9187613,26.9134183 23.3228902,26.9367335 23.7347905,26.9134183 C24.4964177,26.8590163 25.0326655,26.6724955 25.2969035,26.5559198 C25.7088038,26.4082575 26.1906497,26.182878 26.6414087,25.8486947 C27.4729812,25.2347298 27.978142,24.356527 27.9315118,23.1985428 C27.9081967,22.5612628 27.6983607,21.923983 27.4418943,21.3255617 C27.5196113,21.2167577 27.5895568,21.1079538 27.6672738,20.99915 C28.9806922,19.0795385 29.9987857,16.9734062 29.9987857,16.9734062 C29.9987857,16.9734062 30.0920462,17.6184578 30.4106862,18.6909532 C30.5661202,19.2349727 30.8847602,19.8256223 31.1645417,20.4007287 C29.9288403,21.4032787 29.1672132,22.5690347 28.8952033,23.3306618 C28.4055858,24.7451123 28.7863995,25.3823922 29.5091682,25.5300547 C29.8355798,25.6 30.3018822,25.4445658 30.6438373,25.2969035 C31.0790528,25.1570128 31.5919855,24.9160898 32.0816028,24.5585913 C32.9131755,23.9446267 33.7136612,23.089739 33.667031,21.9317547 C33.6437158,21.4032787 33.5038252,20.8825743 33.3095325,20.3774135 C34.3587128,19.942198 35.7109897,19.701275 37.4363085,19.9033393 C41.1356405,20.338555 41.866181,22.6467517 41.7262902,23.618215 C41.5863995,24.5896782 40.8092288,25.1181542 40.5527627,25.28136 C40.2962963,25.4445658 40.2108075,25.4989678 40.2341227,25.6155433 C40.2652095,25.786521 40.3895568,25.7787492 40.6071645,25.7476623 C40.910261,25.6932605 42.550091,24.9627202 42.6200365,23.1752277 C42.736612,20.8903462 40.5605343,18.3956283 36.7135398,18.4189435 L36.7135398,18.4189435 L36.7135398,18.4189435 Z M8.17583485,28.0403157 C6.94790528,29.3770492 5.23812993,29.88221 4.49981785,29.4547662 C3.70710383,28.9962355 4.01797207,27.0222222 5.52568307,25.6077717 C6.44274438,24.7451123 7.62404372,23.9446267 8.40898603,23.4550092 C8.58773528,23.3462052 8.85197328,23.1907712 9.17061323,22.9964785 C9.22501518,22.9653917 9.256102,22.9498482 9.256102,22.9498482 L9.256102,22.9498482 C9.31827565,22.9109897 9.3804493,22.8721312 9.44262295,22.8332727 C9.99441408,24.8539162 9.46593807,26.6336368 8.17583485,28.0403157 L8.17583485,28.0403157 L8.17583485,28.0403157 Z M17.1132968,21.9628415 C16.685853,23.0042502 15.7921069,25.6699453 15.2480874,25.522283 C14.7817851,25.3979357 14.4942319,23.377292 15.1548269,21.3799635 C15.4890103,20.3774135 16.1962356,19.1805707 16.608136,18.7142683 C17.2765027,17.9681845 18.0148148,17.71949 18.193564,18.0225865 C18.4189435,18.4189435 17.3775348,21.3100182 17.1132968,21.9628415 L17.1132968,21.9628415 L17.1132968,21.9628415 Z M24.488646,25.4911962 C24.3098968,25.5844567 24.1389192,25.6466302 24.0612022,25.6 C24.0068002,25.5689132 24.1389192,25.4445658 24.1389192,25.4445658 C24.1389192,25.4445658 25.0637523,24.4497875 25.4290225,23.9990285 C25.6388585,23.7347905 25.8875532,23.4239223 26.1517912,23.0741955 L26.1517912,23.1752277 C26.1517912,24.3642987 25.0015787,25.1647845 24.488646,25.4911962 L24.488646,25.4911962 L24.488646,25.4911962 Z M30.1775348,24.1933212 C30.0454158,24.1000607 30.068731,23.7891925 30.5117183,22.8177292 C30.6826958,22.4369157 31.0868245,21.7996357 31.7785063,21.185671 C31.8562235,21.4343655 31.9106253,21.6752883 31.9028537,21.9006678 C31.895082,23.4006072 30.8225865,23.96017 30.1775348,24.1933212 L30.1775348,24.1933212 L30.1775348,24.1933212 Z" id="Shape"></path>
                                </g>
                            </g>
                            <g id="gulp" transform="translate(163.000000, 2.000000)">
                                <g id="Group">
                                    <path d="M13.8929577,38.6442958 L14.2751408,32.2759859 L15.3304225,30.4745775 C15.3304225,30.4745775 12.9285915,31.4571127 8.90753521,31.4571127 C4.88640845,31.4571127 2.52098592,30.4927465 2.52098592,30.4927465 L3.70366197,32.4578169 L4.12204225,38.6442958 C4.12204225,39.3075352 6.30929577,39.8451408 9.00753521,39.8451408 C11.7056338,39.8451408 13.8929577,39.3075352 13.8929577,38.6442958" id="Shape" fill="#D34A47"></path>
                                    <path d="M12.6873944,8.90521127 L13.4895775,5.73443662 L17.9319014,1.06007042 L16.7610563,0.0628169014 L12.0579577,5.0421831 L11.1265493,8.83042254 C10.4516901,8.80760563 9.74739437,8.79542254 9.0228169,8.79542254 C4.06957746,8.79542254 0.0541549296,9.35992958 0.0541549296,10.0561268 C0.0541549296,10.7523944 4.06957746,11.316831 9.0228169,11.316831 C13.9759859,11.316831 17.991338,10.7523944 17.991338,10.0561268 C17.991338,9.5434507 15.8135915,9.1021831 12.6873944,8.90521127" id="Shape" fill="#D34A47"></path>
                                    <path d="M12.2207746,10.7040359 C12.2207746,10.7040359 12.0470423,10.7450578 11.5359859,10.7473574 C11.0247887,10.7495828 10.661831,10.7438709 10.5172535,10.605153 C10.4783803,10.5679142 10.4571127,10.493956 10.4573239,10.4438841 C10.4577465,10.3485618 10.5219718,10.292407 10.6038028,10.2572454 L10.6811972,10.3851329 C10.6475352,10.3973728 10.6283099,10.411838 10.6282394,10.4272676 C10.6279577,10.499668 11.1509155,10.5492207 11.5509155,10.5438797 C11.9509859,10.538687 12.4343662,10.5039704 12.4347887,10.4326086 C12.4347887,10.411022 12.3982394,10.3906965 12.3346479,10.3746735 L12.4116901,10.2476761 C12.5153521,10.2815766 12.6058451,10.3470782 12.6056338,10.4604264 C12.6046479,10.6531479 12.371831,10.6824493 12.2207746,10.7040359" id="Shape" fill="#FFFFFF"></path>
                                    <path d="M17.923169,1.06929577 C18.0348592,0.94028169 17.8653521,0.61028169 17.5445775,0.332323944 C17.223662,0.0545070423 16.8729577,-0.0661971831 16.7610563,0.0628169014 C16.6492958,0.191830986 16.8188732,0.521830986 17.1397887,0.799647887 C17.4605634,1.07753521 17.8114085,1.19838028 17.923169,1.06929577" id="Shape" fill="#D34A47"></path>
                                    <path d="M13.6792958,23.0890845 C13.5740141,22.0761268 15.8949296,20.6090845 15.2992958,20.5621127 C14.0170423,20.6354225 13.3788732,22.0647887 12.7337324,23.561831 C12.4973239,24.110493 11.6883803,26.4500704 11.1578169,26.1620423 C10.6273944,25.8741549 11.845493,23.9502817 12.1869014,22.8077465 C11.7929577,23.0966197 10.3482394,24.2190845 9.97591549,23.1678873 C9.37732394,23.6762676 8.09823944,23.9516901 8.24253521,22.6162676 C7.92408451,23.1803521 7.2093662,23.9678873 6.35147887,23.6406338 C5.22485915,23.2109859 7.00429577,19.6221831 7.44676056,19.8032394 C7.88929577,19.9842254 7.35746479,20.8017606 7.21816901,21.1192254 C6.91183099,21.8178873 6.55795775,22.6961972 6.7943662,22.8759859 C7.1993662,23.1840141 8.30147887,21.7107042 8.32598592,21.6783099 C8.53211268,21.4059859 9.1193662,19.6243662 9.59267606,19.8289437 C10.0659859,20.0335211 8.41211268,22.3858451 9.03049296,22.8526761 C9.15521127,22.9469014 9.66549296,22.7945775 9.97591549,22.4587324 C10.1767606,22.2414789 10.1076761,21.7602817 10.7771831,20.163662 C11.4466901,18.5671127 12.0433803,16.5788028 12.5025352,16.7302817 C12.9616901,16.8816901 12.5832394,17.9021831 12.4185211,18.2826056 C11.6455634,20.0680986 10.3089437,23.0178873 10.9392958,22.7945775 C11.5696479,22.571338 11.8978873,22.5582394 12.5151408,21.8359155 C13.1323944,21.1135915 13.1039437,19.9238028 13.5153521,19.9490845 C13.9269014,19.9744366 13.8578169,20.3559155 13.7580282,20.6464085 C14.1629577,20.1830282 15.6774648,19.2071127 16.0430986,20.173662 C16.4761972,21.3179577 13.8762676,22.9708451 14.524507,22.8865493 C15.1565493,22.8043662 16.180493,22.1558451 16.6176761,21.5661972 L17.8210563,10.7474648 C17.8210563,10.7474648 16.6101408,11.7495775 8.90633803,11.7495775 C1.20246479,11.7495775 0.116830986,10.7683099 0.116830986,10.7683099 L1.14133803,20.6432394 C1.68514085,19.0976761 2.97647887,15.9714789 5.01197183,16.0764085 C5.93788732,16.1241549 7.17394366,17.9070423 6.11514085,17.9674648 C5.66697183,17.9929577 5.62147887,17.0775352 5.09077465,16.9430986 C4.7078169,16.8460563 4.17464789,17.1573944 3.83007042,17.4947183 C3.14288732,18.1672535 1.66492958,20.8207042 1.86021127,22.1435915 C2.10901408,23.8301408 4.18753521,21.5575352 4.53922535,20.8828169 C4.78690141,20.4075352 4.95422535,18.9993662 5.49591549,19.1471127 C6.03767606,19.2948592 5.44866197,20.7480986 5.05598592,22.0329577 C4.61485915,23.4757042 4.38295775,24.9976056 3.83007042,24.8225352 C3.27711268,24.6476056 4.1778169,22.7850704 4.14521127,22.4587324 C3.62549296,22.9382394 2.66802817,24.1521831 1.44309859,23.551338 L2.0793662,29.6835915 C2.0793662,29.6835915 3.77042254,31.0197183 8.86457746,31.0197183 C13.9587324,31.0197183 15.7123944,29.7044366 15.7123944,29.7044366 L16.5024648,22.601831 C15.8560563,23.2312676 13.8102817,24.3490141 13.6792958,23.0890845" id="Shape" fill="#D34A47"></path>
                                </g>
                            </g>
                        </g>
                        <g id="Group-4" transform="translate(35.000000, 111.000000)">
                            <g id="browserify-icon" transform="translate(68.000000, 7.000000)">
                                <g id="Group">
                                    <path d="M13.8227779,0.00108623116 C13.2693741,0.0113479397 12.5768579,0.3565001 12.0815719,0.237267136 C11.8838762,0.189678794 11.6422416,0.169162612 11.4056925,0.181990754 C11.4015196,0.18223196 11.3973025,0.181749547 11.3931297,0.181990754 C11.1526038,0.196280602 10.9178806,0.246986131 10.7448884,0.352845025 C10.7377407,0.357218895 10.7295421,0.361266331 10.7222754,0.365407839 C10.7153849,0.375462915 10.7081343,0.38457407 10.6996623,0.39304603 C10.469793,0.622914572 9.96133629,0.643934874 9.72478794,0.880483216 C9.53157468,1.07369648 9.35254433,1.44364382 9.1393608,1.77495557 C9.13733468,1.77810734 9.13636985,1.78186211 9.13433568,1.78500582 C8.37582634,2.66934271 7.77054473,3.75747457 7.55644623,4.64681487 C7.38053146,5.37754612 7.38295639,6.36449045 7.09413468,7.09153849 C7.0133588,7.29487196 6.67846433,8.4204205 6.93835578,8.63927719 C7.11537528,8.78834734 7.86996664,8.90249085 8.09162211,8.63927719 C8.21091055,8.49761045 9.304759,8.14355055 9.64689849,7.73726714 C10.0497849,7.25883417 10.2576651,6.43246472 10.5338332,5.73726714 C10.5777801,5.62664361 10.6343654,5.50925669 10.6996623,5.39304602 C10.8563417,5.69652341 10.9807132,5.94430311 11.046396,6.09656361 C11.1831196,6.41349709 11.3335582,6.85177326 11.4584563,7.32018171 C11.1877885,7.73482131 11.3005676,8.3021403 11.4961447,8.56138774 C10.7047083,8.80779256 11.0817262,9.6592209 11.0514211,9.68952844 C10.9992997,9.74166512 10.8341885,9.81129005 10.7675015,9.87797065 C10.6849407,9.96053226 10.6720241,10.1327156 10.6720241,10.2573676 C10.6720241,10.3776402 10.6872193,10.4845154 10.7097126,10.5789757 C9.98961126,12.3904836 9.30991276,14.6579626 8.45091859,15.8804832 C8.2036792,15.9932526 7.95074493,16.0900655 7.65443618,16.1493274 C7.0770605,16.2937101 5.6176193,16.5797957 4.38810436,16.9935485 C4.33473994,17.0644727 4.27255783,17.1342207 4.20217471,17.2046039 C4.08034718,17.3264305 3.83656506,17.3264949 3.71473753,17.4483224 C3.61998295,17.543077 3.32456748,17.4364816 3.2298129,17.531237 C2.94864466,17.8124044 2.53364808,17.9584644 2.09162195,18.1794782 C2.04258396,18.2039967 1.88544788,18.1419336 1.84790336,18.1794782 C1.64710255,18.380279 1.28756406,18.4960989 1.11674758,18.6669154 C0.782551799,19.0011111 0.502386171,19.3641914 0.141873206,19.7247044 C-0.216410211,20.0829877 0.514259136,21.069452 0.629310393,21.1845034 C0.967866371,21.5230592 1.58974939,21.5771039 1.92830536,21.9156591 C2.07073673,22.0580905 2.5482724,21.8676141 2.71976265,21.9809857 C2.7640521,21.9872169 2.80365733,21.9952949 2.83031541,22.0086239 C3.3291311,22.2580317 4.30760426,22.4424274 4.89815461,22.6392771 C5.71201448,22.9105632 6.35758955,23.6354171 7.19714975,23.8453074 C7.83628383,24.005091 8.56214271,24.0900864 9.2072,24.3051064 C9.47688684,24.3950014 9.8043996,24.3333186 10.0664965,24.4206842 C10.5566706,24.5840756 10.9992531,24.7868792 11.4458935,24.9357596 C11.6005894,24.9873246 11.8049946,24.8961375 11.9634814,24.9357596 C12.3200941,25.0249126 12.7056008,25.0508044 13.0539336,25.1669154 C13.6741773,25.3736635 14.5015293,24.9601672 15.1217729,25.1669154 C15.5305335,25.3031686 18.0754083,25.0851392 18.2800644,24.8804832 C18.4305198,24.7300277 19.0027095,24.9211699 19.1996623,24.8226942 C19.3706043,24.7372229 19.8897223,24.8210782 20.0036824,24.7071164 C20.29801,24.412788 20.9021998,24.3998182 21.3227779,24.1895285 C21.4996953,24.1010701 21.7723674,24.2235272 21.9559438,24.1317395 C22.0615356,24.0789435 22.2760523,24.1439035 22.5087075,24.2448049 C22.951446,24.2355007 23.2921881,24.1895285 23.7348383,24.1895285 C24.2611023,24.1895285 24.9876004,23.9396582 25.7574513,23.5613877 C26.6094505,23.369469 27.6508664,23.1478721 27.6996623,23.0990761 C28.0698284,22.7289101 29.053731,22.8354597 29.4207679,22.4684229 C29.680788,22.208402 30.0148961,22.1029371 30.2825769,21.8352571 C30.5210476,21.5967855 30.848673,21.3237299 31.1921246,21.0362621 C31.2519438,20.8695454 31.4050388,20.7127951 31.546396,20.571438 C31.6056691,20.5121649 32.0240008,19.2879541 31.948406,19.1367646 C31.8099723,18.8598971 31.5812383,18.6309114 31.3177528,18.4181716 C31.2360073,18.3901725 31.1733218,18.3616804 31.1443859,18.3327445 C30.8629299,18.0512885 30.1885444,18.0075561 29.9383558,17.7573676 C29.5354935,17.3545054 28.9297978,16.9924479 28.2072,16.74983 C28.0558505,16.6748149 27.914191,16.5950119 27.8127276,16.4935485 C27.6840265,16.3648482 26.940205,16.2005034 26.7222754,16.0915385 C26.6050549,16.032927 26.3499505,16.1237362 26.2624764,16.0362621 C26.0503075,15.8240932 25.1610783,15.672923 24.5187578,15.4684229 C24.4250991,15.4743646 24.2748125,15.4028695 24.247401,15.3754581 C24.2280764,15.3561326 23.7301596,15.2828397 23.5664965,15.1191766 C23.5479156,15.1005966 23.4810694,14.4334657 23.4810694,14.3503325 C23.4810694,14.3196816 23.4066839,14.1960747 23.4509186,14.15184 C23.457801,14.1449576 23.4645259,14.1368611 23.4710191,14.1292269 C23.173727,12.2972567 22.9464145,10.2743317 22.7323256,10.094051 C22.414408,9.82632442 22.2377841,8.34832 21.8881045,8.05385005 C21.5224981,7.74598271 21.2936829,7.40932582 21.0112201,7.14681487 C21.0110593,7.14601085 21.0113809,7.14510231 21.0112201,7.14430634 C20.9049495,6.56024925 20.7031606,5.9040603 20.6393608,5.85033649 C20.5357428,5.76307216 20.6927285,5.36724985 20.5891095,5.27998472 C20.2665761,5.00838674 19.8464064,3.41162452 19.5438834,3.15686915 C19.1476728,2.82320885 18.9527663,2.30534592 18.5765468,1.98852744 C17.646925,1.20569568 16.1027144,0.0407839196 14.3956423,0.129230955 C14.3222593,0.108542714 14.2508044,0.0836703517 14.1820744,0.0563666331 C14.0735461,0.0132510552 13.9504885,-0.00127839196 13.8227779,0.00109025126 L13.8227779,0.00108623116 L13.8227779,0.00108623116 Z" id="Shape" fill="#3C6991"></path>
                                    <path d="M13.4542183,10.1390529 C13.3108334,10.1132004 13.170646,10.1117017 13.0606593,10.1481922 C12.8775068,10.2089825 12.5822183,10.0650428 12.3909789,10.099561 C11.6679172,10.2300728 11.1010308,10.4259691 11.0034066,10.669042 C12.0765741,10.3613693 13.2679855,11.0480949 13.7560813,11.7006368 C13.9589725,11.9718601 13.6460141,12.38295 13.7564833,12.715729 C13.7814859,12.7910658 13.8014834,13.2735019 13.7146115,13.3384771 C13.5330356,13.4743044 13.5510578,13.948279 13.4008998,14.1645709 C13.0474806,14.6736836 12.7392523,15.0456426 12.4390448,15.4781058 C12.1294553,15.9240836 11.3016764,16.0134159 10.8396663,16.1667643 C10.7375807,16.2006505 10.6090613,16.1301974 10.5014529,16.165912 C10.4760225,16.1743614 10.4463799,16.1758103 10.4167815,16.1716768 C10.4271703,16.1833938 10.4391727,16.1946171 10.4477403,16.2060808 C10.4867055,16.2581571 10.6767397,16.2085411 10.7322774,16.2470988 C11.091286,16.4963256 12.5118915,16.400714 12.9057713,16.2699868 C13.1508495,16.1886368 13.3781588,16.0685001 13.6232338,15.9871614 C13.9375316,15.8828366 14.2468736,15.3941041 14.4725885,15.1424715 C15.2489408,14.2769994 15.6037098,12.7779908 15.2197468,11.6211956 C15.0267425,11.0397017 14.5214859,10.6911711 14.0913818,10.3925926 C13.9443256,10.2905013 13.6932245,10.1821395 13.4542311,10.1390545 L13.4542183,10.1390529 L13.4542183,10.1390529 Z" id="Shape" stroke-opacity="0" stroke="#FFFFFF" stroke-width="1.17950344" fill="#E6B35A"></path>
                                    <path d="M15.1858122,9.02189829 C15.1395947,9.02042694 15.1331015,9.47296724 15.1295156,9.68870433 C15.1077957,9.68998271 15.1087695,9.71716503 15.1146187,9.74797428 C14.881284,9.85159316 14.3733629,10.0591108 14.4122429,10.1006408 C14.414084,10.1015815 14.414269,10.102884 14.4151855,10.1035996 C14.3967944,10.1045403 14.3775011,10.1107554 14.3766552,10.1361994 C14.3748141,10.169711 14.4439131,10.1380406 14.4774222,10.1391582 C14.531475,10.1409994 15.0039196,10.3151654 15.1916422,10.3940253 C15.2149259,10.5725001 15.2835087,10.6790545 15.2835087,10.8830151 C15.2835087,11.0101676 15.3085765,11.1853001 15.3161166,11.1853001 C15.3188824,11.1853001 15.3240281,11.1813845 15.3278874,11.1793584 C15.333403,11.2014183 15.3396575,11.2144595 15.3486336,11.2060302 C15.3855269,11.1714895 15.4524905,11.0788872 15.5205202,10.974872 C15.5234629,10.9704016 15.5265905,10.9675313 15.5293475,10.9630271 C15.6491136,10.814716 15.7858734,10.6248265 15.9027521,10.4532921 C16.1293177,10.4862585 16.3368675,10.5125644 16.3887686,10.5125644 C16.4136892,10.5125644 17.2746364,10.6604985 17.0259449,10.4118022 C17.0108639,10.3966287 16.99319,10.3837427 16.9755715,10.3703108 C16.981087,10.3659369 16.9842187,10.3614464 16.984398,10.355487 C16.9862392,10.3074798 16.5056089,10.0865463 16.4272434,10.0028213 C16.3894295,9.96243296 16.3346412,9.93651779 16.2968466,9.89613105 C16.2869146,9.8855196 16.3056731,9.85587699 16.3353769,9.81314975 L16.3353769,9.81019095 C16.4021934,9.73638351 16.4735156,9.6601809 16.5250307,9.60866573 C16.5497302,9.58396945 16.6888442,9.32370814 16.5568852,9.34084181 C16.467852,9.35241005 16.1770436,9.37080443 15.7961712,9.48233809 C15.7961712,9.48233809 15.693325,9.34784403 15.6926264,9.34821869 C15.60992,9.31438151 15.3756294,9.02815759 15.1855156,9.02187819 L15.1858122,9.02189829 L15.1858122,9.02189829 Z" id="Shape" stroke-opacity="0" stroke="#FFFFFF" stroke-width="1.17950344" fill="#E6B35A"></path>
                                    <path d="M13.035085,8.95475538 C13.0076446,8.96799759 12.9660238,9.0218605 12.9528008,8.99443296 C12.9395586,8.96700463 13.0625061,8.94153085 13.035085,8.95475538 C12.9532423,8.99421829 12.6367044,9.27937769 12.7533444,9.36950191 C12.8493114,9.44365749 13.2051521,9.30496403 13.3561471,9.35771336 C13.3787128,9.36558473 13.6295011,9.75039438 13.6687855,9.63798513 C13.7328249,9.45463558 13.6535213,9.14294593 13.6555434,9.13729366 C13.6850806,9.05271639 13.9166859,9.08742995 13.9732776,9.06013669 C14.0200466,9.03759518 14.1148744,8.99762895 14.1279325,8.96021146 C14.13143,8.95004141 14.1340029,8.92002654 14.1385994,8.92972221 C14.1424668,8.93757749 14.0767855,8.87391276 13.9968,8.84597306 C13.8772551,8.80420664 13.7562565,8.83037588 13.6706066,8.80043659 C13.6310834,8.78662433 13.6786975,8.55424403 13.6643514,8.52455639 C13.6172688,8.42692664 13.5874188,8.31243418 13.5956398,8.3295011 C13.6190159,8.37798674 13.4944675,8.37691256 13.4615654,8.41950553 C13.4205894,8.47253629 13.3131811,8.65230874 13.2437346,8.65131256 C13.160513,8.65001809 12.8271469,8.57072563 12.8047639,8.63479639 C12.8029226,8.63839839 13.0125346,8.84584925 13.0351003,8.95474413 L13.035085,8.95475538 L13.035085,8.95475538 Z" id="Shape" stroke-opacity="0" stroke="#FFFFFF" stroke-width="0.8033945" fill="#E6B35A"></path>
                                    <path d="M16.2575968,12.1890235 C16.2352876,12.1683055 16.1699425,12.1491795 16.1906509,12.1268679 C16.2113793,12.1045507 16.2799244,12.2097423 16.2575968,12.1890235 C16.1910191,12.1272008 15.810092,11.936398 15.7686931,12.0778669 C15.7346315,12.1942705 15.9934939,12.4750553 15.9994155,12.6349041 C16.0012566,12.6587827 15.733399,13.0325974 15.8523931,13.0281865 C16.0464796,13.0209905 16.3078248,12.8335494 16.3138018,12.833329 C16.4033319,12.8300004 16.4554356,13.0583285 16.5014883,13.1010879 C16.5395216,13.1364069 16.6113045,13.2101387 16.6509009,13.208669 C16.6617528,13.2082669 16.6904981,13.1995875 16.6831783,13.2073825 C16.6772929,13.2138066 16.7126054,13.129469 16.7094786,13.0448112 C16.7046946,12.9182617 16.6363353,12.8151236 16.6329696,12.7244526 C16.6311285,12.6826251 16.8651634,12.6422151 16.8875643,12.6180535 C16.9613154,12.5386259 17.0570621,12.4690886 17.0441689,12.4829749 C17.0075329,12.5224209 16.9631356,12.4060535 16.9114741,12.3909323 C16.8471583,12.3721101 16.6406023,12.3376289 16.6162146,12.272599 C16.5869901,12.1946573 16.5393938,11.8552917 16.471565,11.857809 C16.4676978,11.8578894 16.3507683,12.1282227 16.2575968,12.188931 L16.2575968,12.1890235 L16.2575968,12.1890235 Z" id="Shape" stroke-opacity="0" stroke="#FFFFFF" stroke-width="0.8033945" fill="#E6B35A"></path>
                                    <path d="M23.586597,15.1945536 C23.5216764,15.4178541 23.1146926,16.1337954 22.9433809,16.3051064 C22.7230416,16.5254456 22.5335438,16.7551445 22.3403659,16.9483224 C22.2034741,17.0852141 21.8127438,17.4357435 21.6971498,17.5513375 C21.4458066,17.8026806 21.2985464,17.7087356 21.0137326,17.9935485 C20.8725588,18.1347224 20.5883851,18.1374899 20.4509186,18.2749556 C20.3265793,18.3992956 19.3290549,18.4740784 19.0840844,18.5965636 C19.0248,18.6262062 18.8477459,18.5514951 18.8026774,18.5965636 C18.6266839,18.7725571 17.2359663,18.8366416 17.1946371,18.8779706 C16.9817094,19.0908992 16.4148575,18.8457504 16.10921,18.9985736 C15.8381613,19.1340985 15.3000941,19.0387746 14.9835819,19.0387746 C14.8083015,19.0387746 14.3425841,19.035446 13.8629789,19.0236992 C13.7497593,19.0076736 13.6605733,18.9949491 13.6569488,18.9985736 C13.6545206,19.0010017 13.6436615,19.0121197 13.6368483,19.0186741 C13.5467666,19.0159002 13.4600178,19.0121295 13.3730291,19.0086239 C13.3188744,18.9880056 13.2614054,18.9752402 13.2147378,18.9985736 C13.2125749,18.999651 13.2094874,19.000037 13.207204,19.0010822 C12.8329705,18.9829934 12.5275546,18.956484 12.4509226,18.9181676 C12.1363433,18.760878 11.7984973,18.7171626 11.4056965,18.7171626 C10.7908985,18.7171626 9.42958874,17.9904152 8.95343518,17.7523385 C8.88051055,17.7158761 8.67827136,17.5038536 8.56901306,17.4458059 C8.56815276,17.4037315 8.56665729,17.3655582 8.55142513,17.3503285 C8.43939699,17.2383002 8.39034694,16.987971 8.3102191,16.8277154 C8.2768788,16.7610347 8.3102191,16.5166159 8.3102191,16.5463084 C8.3102191,16.5476189 8.39102311,16.2247002 8.3906211,16.2247002 C8.32173829,16.2247002 7.96145689,16.6940655 7.82780704,16.8277154 C7.8265608,16.8289616 7.83032361,16.8362235 7.83283216,16.8427907 C7.75751075,16.9466042 7.70469146,17.1015269 7.70469146,17.3352531 C7.70469146,18.132045 8.14417608,18.1742351 8.55645025,18.5865094 C8.65767398,18.6877331 8.8743799,18.6205194 8.95343518,18.6995746 C9.03415075,18.7802902 9.1526191,18.8519831 9.29263115,18.9156551 C9.11750995,19.0183269 8.78010935,19.0437547 8.66951558,19.1543485 C8.56135156,19.2625126 8.05985206,19.5735019 7.87303316,19.6669114 C7.83790955,19.6844736 7.66797588,19.7036269 7.64690251,19.7247002 C6.58490291,20.7866999 5.38637669,21.4726634 4.40569633,22.4533435 C4.32313471,22.5359051 4.292631,23.6142022 4.292631,23.8176651 C4.292631,24.1728804 4.17198939,24.5487831 4.40569633,24.7824892 C4.5042925,24.8810862 4.83120949,24.8110175 4.91825914,24.8980671 C4.93713029,24.9169391 5.1748525,25.0937351 5.20217874,25.0664089 C5.30592483,24.9626629 5.14438979,24.4202525 5.14438979,24.272439 C5.14438979,23.496115 5.22817366,22.7112684 5.71474171,22.2247002 C6.65299618,21.2864459 7.99075458,20.8582351 8.84036985,20.0086199 C9.09011378,19.7588751 9.54771699,19.6258797 9.88057085,19.352841 C9.86890131,19.4329094 9.88250854,19.5083425 9.94087236,19.571434 C9.97967115,19.6133765 10.1179192,19.5303332 10.167003,19.5563586 C10.5008418,19.7333741 11.5182312,20.1128869 11.8177568,19.7473134 C11.872074,19.8505905 11.9151236,19.9552337 11.9685106,20.0086199 C12.1679413,20.2080506 12.0119863,21.1704112 11.9107216,21.3729415 C11.5286392,22.1371055 11.3271413,24.3434565 11.0011739,24.6694239 C10.9448949,24.7257037 11.0686971,25.261756 11.1142392,25.352841 C11.2326858,25.5897335 11.0275554,26.1179151 11.1142392,26.2045997 C11.1995184,26.289879 11.1445379,26.5163055 11.2298171,26.6015847 C11.3074533,26.6792217 11.6622312,26.5817375 11.7398673,26.6593736 C11.7706436,26.69015 12.1750955,26.9653515 12.2524302,26.8880169 C12.3165122,26.8239349 12.0770074,26.0849094 12.0237869,25.9784691 C11.9779417,25.8867779 12.1472466,24.2042565 12.1946412,24.1568611 C12.2609697,24.0905335 12.1283128,23.8262039 12.1946412,23.7598761 C12.3237966,23.6307207 12.4785608,20.9545021 12.4785608,20.5764591 C12.4785608,20.5126512 12.6416684,20.1139377 12.5363498,20.0086199 C12.5357869,20.0080571 12.44215,19.792997 12.3152442,19.5839967 C12.5026654,19.5979151 12.6607976,19.6205049 12.707204,19.6669114 C12.7906453,19.7503517 14.4727398,19.6669114 14.7524301,19.6669114 C15.8631398,19.6669114 17.6104668,19.5808579 18.2775558,19.4382681 C18.5434798,19.3814271 19.1741331,19.331688 19.528812,19.1543485 C19.7347015,19.0514034 20.4598794,18.9809769 20.586601,18.9483184 C20.857395,18.8785295 21.727598,18.6691305 21.9710231,18.4257054 C22.1515618,18.2451659 22.7688764,17.6197435 22.9961488,17.5061074 C23.2523731,17.3779956 23.3810444,16.9228992 23.5313246,16.7121375 C23.5506131,16.5560997 23.9705488,16.1483755 23.8881085,15.9834942 C23.794556,15.6027795 23.736082,15.20919 23.586601,15.1945495 L23.586597,15.1945536 L23.586597,15.1945536 Z" id="Shape" stroke-opacity="0" stroke="#FFFFFF" fill="#E6B35A"></path>
                                </g>
                            </g>
                            <g id="airbnb" fill="#E0565B">
                                <path d="M29.7550675,27.8903526 C29.5136387,29.683331 28.3071841,31.2348805 26.617872,31.9243816 C25.7902641,32.2687878 24.8941194,32.372454 23.9976303,32.2687878 C23.1359261,32.1654659 22.2738775,31.8895966 21.3777327,31.3729874 C20.1364931,30.6827975 18.8952535,29.6144497 17.4473701,28.0284595 C19.7228614,25.2360146 21.1015191,22.684654 21.6188171,20.4098515 C21.8602458,19.3408149 21.8946864,18.3754445 21.7913646,17.4789554 C21.6536021,16.6172512 21.3432923,15.824084 20.8604347,15.1345829 C19.7917426,13.5833776 17.9991088,12.6868885 15.9994868,12.6868885 C13.9998648,12.6868885 12.2072308,13.6178182 11.1385386,15.1345829 C10.6556812,15.824084 10.3457157,16.6172512 10.2076089,17.4789554 C10.0698464,18.3754445 10.104287,19.3752555 10.3801563,20.4098515 C10.8971099,22.684654 12.3105527,25.2704552 14.5516034,28.0625558 C13.1381606,29.6488904 11.8624803,30.7175825 10.6212406,31.4070836 C9.72509588,31.9243816 8.86304734,32.2002509 8.00134321,32.3032284 C7.07041345,32.4068946 6.17392429,32.2687878 5.38110139,31.9588222 C3.69178933,31.2693211 2.48533466,29.7174271 2.24390596,27.9247933 C2.14058413,27.0630891 2.20946535,26.201385 2.55421589,25.2360146 C2.65753773,24.8909196 2.8300852,24.546858 3.00228826,24.1328817 C3.24371696,23.5814876 3.51958626,22.994964 3.79511116,22.4087847 L3.82989619,22.3402479 C6.2083649,17.2030861 8.7597255,11.9629468 11.4144079,6.86091447 L11.5177298,6.65358199 C11.7935991,6.13697279 12.069124,5.58557859 12.3453377,5.06828057 C12.6208626,4.51654196 12.9311725,3.99924396 13.3103636,3.55082717 C14.0343054,2.72321925 14.9996758,2.27514687 16.068368,2.27514687 C17.1370601,2.27514687 18.1024305,2.72321925 18.8263722,3.55082717 C19.2055634,3.99924396 19.5158732,4.51654196 19.7917426,5.06828057 C20.0676119,5.58557859 20.3431367,6.13697279 20.6190061,6.65358199 L20.7226724,6.86091447 C23.3425697,11.9973875 25.8939304,17.2375268 28.2727435,22.3746885 L28.2727435,22.4087847 C28.5486128,22.9605234 28.7896971,23.5814876 29.0655664,24.1328817 C29.2381139,24.546858 29.4103169,24.8909196 29.5136387,25.2360146 C29.7895081,26.1321594 29.8928299,26.9945522 29.7550675,27.8903526 L29.7550675,27.8903526 L29.7550675,27.8903526 Z M15.9994867,26.2699218 C14.1379716,23.9258938 12.9311725,21.7192836 12.5175407,19.8581129 C12.3453377,19.0649456 12.3105527,18.3754445 12.4142189,17.7548248 C12.4831001,17.2030861 12.6900882,16.7202288 12.9656131,16.3062525 C13.6206736,15.376356 14.7238064,14.7891435 15.9994867,14.7891435 C17.275167,14.7891435 18.4127405,15.3412265 19.0333603,16.3062525 C19.3088852,16.7202288 19.5158732,17.2030861 19.5847545,17.7548248 C19.6880764,18.3754445 19.6536357,19.0993863 19.4814326,19.8581129 C19.0678009,21.6851874 17.8610019,23.8914531 15.9994867,26.2699218 L15.9994867,26.2699218 L15.9994867,26.2699218 Z M31.5477014,24.4772879 C31.3754982,24.0636561 31.2029509,23.6155837 31.0307477,23.2363926 C30.7548785,22.6161172 30.4790091,22.0295936 30.2375805,21.477855 L30.2031399,21.4437588 C27.8246711,16.2721564 25.2733105,11.0320171 22.5841875,5.86144789 L22.4808656,5.6541154 C22.2049964,5.1368174 21.929127,4.58507878 21.6536021,4.03368457 C21.3085071,3.41272032 20.9637566,2.75834868 20.4123624,2.13738443 C19.3088852,0.758382294 17.7232394,0 16.0339274,0 C14.3101746,0 12.7589695,0.758382294 11.6210516,2.06884761 C11.104098,2.68912305 10.7249069,3.3441835 10.3801563,3.96514775 C10.104287,4.51654196 9.82841771,5.06828058 9.55254841,5.58557859 L9.44922658,5.79187785 C6.79488854,10.9631359 4.20908734,16.2036195 1.83027421,21.3748775 L1.7958336,21.4437588 C1.5544049,21.995153 1.27853559,22.5809877 1.00266628,23.201952 C0.83046322,23.5814876 0.65791575,23.9951194 0.485712685,24.4431918 C0.037295907,25.7185276 -0.100466544,26.9253266 0.0717365199,28.166222 C0.451272073,30.7520231 2.17502474,32.9241926 4.55383786,33.8892186 C5.44998261,34.2687541 6.38091238,34.4409572 7.34628275,34.4409572 C7.62215206,34.4409572 7.9669026,34.4065166 8.2427719,34.3717315 C9.38034535,34.2336247 10.5523594,33.8551224 11.6899328,33.1997175 C13.10372,32.4068946 14.4482815,31.2693211 15.9650461,29.6144497 C17.4818108,31.2693211 18.8608129,32.4068946 20.239815,33.1997175 C21.3777327,33.8551224 22.5497469,34.2336247 23.6873202,34.3717315 C23.9631896,34.4065166 24.3079401,34.4409572 24.5838095,34.4409572 C25.5491799,34.4409572 26.5142057,34.2687541 27.3762544,33.8892186 C29.7895081,32.9241926 31.4788201,30.7175825 31.8580113,28.166222 C32.1338806,26.9594229 31.9957738,25.7533126 31.5477014,24.4772879 L31.5477014,24.4772879 L31.5477014,24.4772879 Z" id="Shape"></path>
                            </g>
                        </g>
                        <text id="Development" font-family="SourceSansPro-Regular, Source Sans Pro" font-size="18" font-weight="normal" fill="#000000">
                            <tspan x="40" y="18">Development</tspan>
                        </text>
                    </g>
                </g>
                <g id="vcs" transform="translate(323.000000, 0.000000)">
                    <path d="M162.126017,75 L105,75 L105,80 L93,80 L93,68 L105,68 L105,74 L162,74 C162,71.790861 163.790861,70 166,70 C168.209139,70 170,71.790861 170,74 C170,76.209139 168.209139,78 166,78 C164.136161,78 162.57006,76.7252272 162.126017,75 Z" id="Combined-Shape" fill-opacity="0.12" fill="#000000"></path>
                    <g id="box">
                        <text id="Commit" font-family="SourceSansPro-Regular, Source Sans Pro" font-size="18" font-weight="normal" fill="#000000">
                            <tspan x="0" y="18">Commit</tspan>
                        </text>
                        <g id="git-icon" transform="translate(15.000000, 53.000000)" fill="#DE4C36">
                            <path d="M31.3965306,14.5741896 L17.4248441,0.603556628 C16.6208041,-0.201185543 15.3157315,-0.201185543 14.5106382,0.603556628 L11.6094233,3.50477151 L15.2897494,7.18509761 C16.1450513,6.8961348 17.1256991,7.08994704 17.8075531,7.77180101 C18.492567,8.4578683 18.6849749,9.44694278 18.3889899,10.3050535 L21.9358945,13.8519581 C22.7940052,13.5563242 23.784133,13.7476788 24.4694981,14.4340971 C25.4273239,15.3915718 25.4273239,16.9434743 24.4694981,17.9016511 C23.5113212,18.859828 21.9594188,18.859828 21.0008907,17.9016511 C20.2804149,17.1804729 20.1024025,16.1222299 20.4672049,15.234626 L17.1594056,11.9268267 L17.1590545,20.6315248 C17.3925421,20.7473908 17.6130386,20.9015276 17.8075531,21.0953399 C18.7653789,22.0528145 18.7653789,23.604717 17.8075531,24.563596 C16.8493762,25.5214219 15.2967716,25.5214219 14.3399991,24.563596 C13.3821734,23.604717 13.3821734,22.0528145 14.3399991,21.0953399 C14.5766467,20.8590434 14.8505119,20.6803289 15.1426346,20.5602495 L15.1426346,11.7744453 C14.8505119,11.6550682 14.5769979,11.477407 14.3399991,11.2393549 C13.6142565,10.5146657 13.4397552,9.44975165 13.8115799,8.5586366 L10.1839201,4.93027467 L0.603907018,14.5095856 C-0.201186261,15.31503 -0.201186261,16.6201026 0.603907018,17.4248449 L14.5755934,31.3958289 C15.3799845,32.2005711 16.684706,32.2005711 17.4901504,31.3958289 L31.3965306,17.4898 C32.2012725,16.6847068 32.2012725,15.3789319 31.3965306,14.5741896" id="Shape"></path>
                        </g>
                    </g>
                </g>
                <g id="ci" transform="translate(561.000000, 0.000000)">
                    <g id="box">
                        <g id="digitalocean" transform="translate(23.000000, 53.000000)">
                            <g id="Group">
                                <g transform="translate(5.812500, 0.000000)">
                                    <path d="M2.2125,18.7875 C8.5875,14.68125 15.825,17.64375 19.44375,19.6125 C14.4375,17.625 7.125,17.175 2.2125,18.7875 L2.2125,18.7875 L2.2125,18.7875 Z" id="Shape" fill="#5FB0E2"></path>
                                    <path d="M13.425,0 C16.5,0 19.125,1.8 20.30625,4.40625 L17.90625,4.40625 C16.85625,3.09375 15.225,2.26875 13.3875,2.26875 C11.5875,2.26875 9.99375,3.075 8.925,4.35 C8.98125,4.3125 9.0375,4.25625 9.09375,4.21875 C11.60625,2.4375 14.94375,4.40625 14.94375,4.40625 C14.94375,4.40625 11.775,3.4875 9.61875,4.9875 C7.4625,6.4875 7.81875,9.50625 7.81875,9.50625 C7.81875,9.50625 7.8,9.46875 7.78125,9.39375 C7.78125,9.43125 7.8,9.46875 7.8,9.50625 C7.29375,9.13125 6.65625,8.8875 5.98125,8.8125 C5.90625,8.38125 5.85,7.93125 5.85,7.4625 C5.86875,3.3375 9.24375,0 13.425,0 L13.425,0 L13.425,0 L13.425,0 Z M3.76875,17.04375 L3.76875,16.40625 C5.75625,14.925 9.43125,13.0125 13.85625,14.4 C20.56875,16.5 24.825,19.36875 30.01875,18.075 C35.19375,16.78125 35.6625,13.95 35.6625,13.95 C35.6625,13.95 34.74375,17.94375 29.64375,18.825 C24.54375,19.70625 19.8375,18.7125 13.8375,16.48125 C9.7875,14.98125 5.8875,16.14375 3.76875,17.04375 L3.76875,17.04375 L3.76875,17.04375 L3.76875,17.04375 Z M3.76875,15.75 C4.14375,15.50625 4.51875,15.2625 4.85625,15.075 C4.6875,14.9625 4.5375,14.85 4.3875,14.7 C4.125,14.4375 3.91875,14.1375 3.76875,13.8375 L3.76875,15.225 C3.7875,15.24375 3.7875,15.24375 3.80625,15.2625 C3.88125,15.31875 3.9375,15.375 4.0125,15.43125 C3.91875,15.39375 3.84375,15.35625 3.76875,15.3 L3.76875,15.75 L3.76875,15.75 L3.76875,15.75 L3.76875,15.75 Z M3.76875,9.28125 L3.76875,6.91875 C4.25625,6.75 4.78125,6.65625 5.30625,6.61875 C5.2875,6.88125 5.26875,7.1625 5.26875,7.44375 C5.26875,7.9125 5.30625,8.3625 5.38125,8.8125 C4.8,8.85 4.25625,9.01875 3.76875,9.28125 L3.76875,9.28125 L3.76875,9.28125 Z M3.76875,6.91875 L3.76875,9.28125 C2.71875,9.88125 2.00625,11.00625 2.00625,12.3 C2.00625,13.59375 2.71875,14.71875 3.76875,15.31875 L3.76875,15.75 C3.3375,16.03125 2.925,16.35 2.5875,16.6125 C1.06875,15.6375 0.075,13.96875 0.075,12.05625 C0.075,9.675 1.6125,7.65 3.76875,6.91875 L3.76875,6.91875 L3.76875,6.91875 L3.76875,6.91875 Z M3.76875,13.85625 C3.09375,12.5625 3.31875,11.08125 3.31875,11.08125 C3.31875,11.08125 2.19375,13.6875 3.76875,15.24375 L3.76875,13.85625 L3.76875,13.85625 L3.76875,13.85625 Z M3.76875,16.3875 C2.7375,17.15625 2.15625,17.79375 2.15625,17.79375 C2.15625,17.8125 2.75625,17.45625 3.76875,17.025 L3.76875,16.3875 L3.76875,16.3875 L3.76875,16.3875 Z" id="Shape" fill="url(#radialGradient-1)"></path>
                                    <path d="M20.64375,15.375 C20.64375,15.375 23.85,17.00625 26.85,16.74375 C29.86875,16.48125 30.76875,15.4125 30.76875,15.4125 C30.76875,15.4125 29.6625,17.45625 26.775,17.56875 C23.8875,17.68125 20.64375,15.45 20.64375,15.375 L20.64375,15.375 L20.64375,15.375 Z" id="Shape" fill="#5FB0E2"></path>
                                    <rect id="Rectangle-path" fill="#5FB0E2" x="18.1875" y="5.025" width="2.7" height="2.7"></rect>
                                    <rect id="Rectangle-path" fill="#0088CF" x="28.875" y="12.46875" width="2.08125" height="2.08125"></rect>
                                    <rect id="Rectangle-path" fill="#5FB0E2" x="21.43125" y="2.55" width="3.58125" height="3.58125"></rect>
                                    <rect id="Rectangle-path" fill="#0088CF" x="31.85625" y="8.75625" width="3.58125" height="3.58125"></rect>
                                    <rect id="Rectangle-path" fill="#5FB0E2" x="25.36875" y="6.4125" width="2.00625" height="2.00625"></rect>
                                    <rect id="Rectangle-path" fill="#5FB0E2" x="26.7" y="10.35" width="2.00625" height="2.00625"></rect>
                                    <rect id="Rectangle-path" fill="#0088CF" x="22.48125" y="10.55625" width="2.00625" height="2.00625"></rect>
                                    <rect id="Rectangle-path" fill="#0088CF" x="29.5125" y="6.4875" width="2.00625" height="2.00625"></rect>
                                </g>
                                <g transform="translate(0.000000, 22.125000)" id="Shape" fill="#0A8CCC">
                                    <path d="M5.90625,3.61875 C5.90625,4.10625 5.83125,4.55625 5.6625,4.96875 C5.49375,5.38125 5.26875,5.7375 4.96875,6.01875 C4.66875,6.31875 4.3125,6.54375 3.9,6.7125 C3.4875,6.88125 3.01875,6.95625 2.53125,6.95625 L0,6.95625 L0,0.3 L2.55,0.3 C3.05625,0.3 3.50625,0.375 3.91875,0.54375 C4.33125,0.7125 4.6875,0.9375 4.9875,1.2375 C5.2875,1.5375 5.5125,1.875 5.68125,2.2875 C5.83125,2.7 5.90625,3.13125 5.90625,3.61875 L5.90625,3.61875 L5.90625,3.61875 Z M4.65,3.61875 C4.65,3.2625 4.59375,2.925 4.5,2.64375 C4.40625,2.3625 4.25625,2.1 4.0875,1.9125 C3.9,1.70625 3.69375,1.55625 3.43125,1.44375 C3.16875,1.33125 2.8875,1.275 2.55,1.275 L1.25625,1.275 L1.25625,5.9625 L2.55,5.9625 C2.86875,5.9625 3.16875,5.90625 3.43125,5.79375 C3.69375,5.68125 3.91875,5.53125 4.0875,5.325 C4.275,5.11875 4.40625,4.875 4.5,4.59375 C4.59375,4.3125 4.65,3.99375 4.65,3.61875 L4.65,3.61875 L4.65,3.61875 Z"></path>
                                    <path d="M7.74375,0.8625 C7.74375,0.95625 7.725,1.05 7.6875,1.14375 C7.65,1.2375 7.59375,1.3125 7.5375,1.36875 C7.4625,1.425 7.3875,1.48125 7.3125,1.51875 C7.21875,1.55625 7.125,1.575 7.03125,1.575 C6.9375,1.575 6.84375,1.55625 6.75,1.51875 C6.65625,1.48125 6.58125,1.425 6.525,1.36875 C6.46875,1.3125 6.4125,1.2375 6.375,1.14375 C6.3375,1.05 6.31875,0.975 6.31875,0.8625 C6.31875,0.76875 6.3375,0.675 6.375,0.58125 C6.4125,0.4875 6.46875,0.4125 6.525,0.35625 C6.58125,0.3 6.65625,0.24375 6.75,0.20625 C6.84375,0.16875 6.9375,0.15 7.03125,0.15 C7.125,0.15 7.21875,0.16875 7.3125,0.20625 C7.40625,0.24375 7.48125,0.3 7.5375,0.35625 C7.6125,0.4125 7.65,0.50625 7.6875,0.58125 C7.725,0.65625 7.74375,0.75 7.74375,0.8625 L7.74375,0.8625 L7.74375,0.8625 Z M7.575,2.23125 L7.575,6.95625 L6.43125,6.95625 L6.43125,2.23125 L7.575,2.23125 L7.575,2.23125 L7.575,2.23125 Z"></path>
                                    <path d="M10.03125,2.15625 C10.2375,2.15625 10.425,2.175 10.59375,2.2125 C10.7625,2.25 10.93125,2.30625 11.08125,2.4 L12.43125,2.4 L12.43125,2.83125 C12.43125,2.90625 12.4125,2.9625 12.375,3 C12.3375,3.0375 12.28125,3.075 12.1875,3.075 L11.75625,3.15 C11.79375,3.225 11.8125,3.31875 11.83125,3.39375 C11.85,3.4875 11.85,3.58125 11.85,3.675 C11.85,3.9 11.8125,4.125 11.71875,4.3125 C11.625,4.5 11.49375,4.66875 11.325,4.8 C11.15625,4.93125 10.96875,5.025 10.74375,5.1 C10.51875,5.175 10.275,5.2125 10.0125,5.2125 C9.84375,5.2125 9.65625,5.19375 9.4875,5.15625 C9.3375,5.25 9.2625,5.34375 9.2625,5.45625 C9.2625,5.55 9.3,5.625 9.39375,5.6625 C9.4875,5.7 9.6,5.7375 9.73125,5.75625 C9.88125,5.775 10.03125,5.775 10.21875,5.775 C10.40625,5.775 10.59375,5.775 10.78125,5.79375 C10.96875,5.8125 11.15625,5.83125 11.34375,5.86875 C11.53125,5.90625 11.68125,5.9625 11.83125,6.05625 C11.98125,6.13125 12.09375,6.24375 12.16875,6.39375 C12.2625,6.54375 12.3,6.7125 12.3,6.9375 C12.3,7.14375 12.24375,7.35 12.15,7.55625 C12.05625,7.7625 11.90625,7.93125 11.7,8.08125 C11.5125,8.23125 11.26875,8.3625 10.9875,8.45625 C10.70625,8.55 10.3875,8.60625 10.0125,8.60625 C9.65625,8.60625 9.3375,8.56875 9.075,8.49375 C8.8125,8.41875 8.5875,8.325 8.41875,8.2125 C8.25,8.1 8.11875,7.96875 8.025,7.81875 C7.93125,7.66875 7.89375,7.51875 7.89375,7.35 C7.89375,7.125 7.96875,6.9375 8.1,6.7875 C8.23125,6.6375 8.41875,6.525 8.6625,6.43125 C8.55,6.375 8.45625,6.28125 8.38125,6.16875 C8.30625,6.05625 8.26875,5.925 8.26875,5.75625 C8.26875,5.68125 8.2875,5.60625 8.30625,5.53125 C8.325,5.45625 8.3625,5.38125 8.41875,5.30625 C8.475,5.23125 8.53125,5.15625 8.60625,5.1 C8.68125,5.025 8.775,4.96875 8.86875,4.93125 C8.625,4.8 8.4375,4.63125 8.30625,4.40625 C8.175,4.2 8.1,3.9375 8.1,3.65625 C8.1,3.43125 8.1375,3.20625 8.23125,3.01875 C8.325,2.83125 8.45625,2.6625 8.625,2.53125 C8.79375,2.4 8.98125,2.2875 9.225,2.23125 C9.50625,2.19375 9.75,2.15625 10.03125,2.15625 L10.03125,2.15625 L10.03125,2.15625 Z M11.26875,7.1625 C11.26875,7.06875 11.25,6.99375 11.19375,6.9375 C11.1375,6.88125 11.0625,6.825 10.96875,6.80625 C10.875,6.76875 10.7625,6.75 10.63125,6.73125 C10.5,6.7125 10.36875,6.7125 10.21875,6.7125 L9.76875,6.7125 C9.61875,6.7125 9.46875,6.69375 9.3375,6.65625 C9.20625,6.73125 9.1125,6.80625 9.01875,6.9 C8.94375,6.99375 8.90625,7.10625 8.90625,7.2375 C8.90625,7.3125 8.925,7.40625 8.9625,7.4625 C9,7.5375 9.075,7.59375 9.16875,7.65 C9.2625,7.70625 9.375,7.74375 9.525,7.78125 C9.675,7.81875 9.84375,7.81875 10.05,7.81875 C10.25625,7.81875 10.44375,7.8 10.59375,7.7625 C10.74375,7.725 10.875,7.6875 10.96875,7.63125 C11.0625,7.575 11.1375,7.5 11.19375,7.425 C11.25,7.33125 11.26875,7.25625 11.26875,7.1625 L11.26875,7.1625 L11.26875,7.1625 Z M10.03125,4.48125 C10.18125,4.48125 10.29375,4.4625 10.40625,4.425 C10.51875,4.3875 10.59375,4.33125 10.66875,4.275 C10.74375,4.2 10.78125,4.125 10.81875,4.03125 C10.85625,3.9375 10.875,3.825 10.875,3.7125 C10.875,3.4875 10.8,3.3 10.66875,3.15 C10.5375,3.01875 10.3125,2.94375 10.03125,2.94375 C9.75,2.94375 9.54375,3.01875 9.39375,3.15 C9.2625,3.28125 9.1875,3.46875 9.1875,3.7125 C9.1875,3.825 9.20625,3.91875 9.24375,4.0125 C9.28125,4.10625 9.3375,4.18125 9.39375,4.25625 C9.46875,4.33125 9.54375,4.3875 9.65625,4.425 C9.76875,4.4625 9.88125,4.48125 10.03125,4.48125 L10.03125,4.48125 L10.03125,4.48125 Z"></path>
                                    <path d="M14.08125,0.8625 C14.08125,0.95625 14.0625,1.05 14.025,1.14375 C13.9875,1.2375 13.93125,1.3125 13.875,1.36875 C13.8,1.425 13.725,1.48125 13.65,1.51875 C13.55625,1.55625 13.4625,1.575 13.36875,1.575 C13.275,1.575 13.18125,1.55625 13.0875,1.51875 C12.99375,1.48125 12.91875,1.425 12.8625,1.36875 C12.80625,1.3125 12.75,1.2375 12.7125,1.14375 C12.675,1.05 12.65625,0.975 12.65625,0.8625 C12.65625,0.76875 12.675,0.675 12.7125,0.58125 C12.75,0.4875 12.80625,0.4125 12.8625,0.35625 C12.91875,0.3 12.99375,0.24375 13.0875,0.20625 C13.18125,0.16875 13.275,0.15 13.36875,0.15 C13.4625,0.15 13.55625,0.16875 13.65,0.20625 C13.74375,0.24375 13.81875,0.3 13.875,0.35625 C13.95,0.4125 13.9875,0.50625 14.025,0.58125 C14.0625,0.65625 14.08125,0.75 14.08125,0.8625 L14.08125,0.8625 L14.08125,0.8625 Z M13.9125,2.23125 L13.9125,6.95625 L12.76875,6.95625 L12.76875,2.23125 L13.9125,2.23125 L13.9125,2.23125 L13.9125,2.23125 Z"></path>
                                    <path d="M16.275,7.03125 C15.8625,7.03125 15.54375,6.91875 15.3375,6.675 C15.1125,6.45 15,6.13125 15,5.71875 L15,3.075 L14.5125,3.075 C14.45625,3.075 14.4,3.05625 14.3625,3.01875 C14.325,2.98125 14.2875,2.925 14.2875,2.83125 L14.2875,2.38125 L15.05625,2.25 L15.3,0.95625 C15.31875,0.9 15.3375,0.84375 15.39375,0.80625 C15.43125,0.76875 15.4875,0.75 15.5625,0.75 L16.14375,0.75 L16.14375,2.23125 L17.38125,2.23125 L17.38125,3.0375 L16.14375,3.0375 L16.14375,5.60625 C16.14375,5.75625 16.18125,5.86875 16.25625,5.94375 C16.33125,6.01875 16.425,6.075 16.55625,6.075 C16.63125,6.075 16.6875,6.075 16.725,6.05625 C16.78125,6.0375 16.81875,6.01875 16.85625,6 C16.89375,5.98125 16.93125,5.9625 16.95,5.94375 C16.96875,5.925 17.00625,5.925 17.025,5.925 C17.0625,5.925 17.08125,5.925 17.1,5.94375 C17.11875,5.9625 17.1375,5.98125 17.175,6.01875 L17.5125,6.5625 C17.34375,6.69375 17.15625,6.80625 16.95,6.88125 C16.74375,6.99375 16.51875,7.03125 16.275,7.03125 L16.275,7.03125 L16.275,7.03125 Z"></path>
                                    <path d="M21.54375,6.95625 L21.0375,6.95625 C20.925,6.95625 20.85,6.9375 20.775,6.9 C20.71875,6.8625 20.6625,6.80625 20.64375,6.7125 L20.55,6.375 C20.4375,6.4875 20.30625,6.58125 20.19375,6.65625 C20.08125,6.73125 19.96875,6.80625 19.8375,6.8625 C19.70625,6.91875 19.575,6.95625 19.44375,6.99375 C19.3125,7.0125 19.14375,7.03125 18.975,7.03125 C18.76875,7.03125 18.6,7.0125 18.43125,6.95625 C18.2625,6.9 18.1125,6.825 18,6.7125 C17.8875,6.6 17.775,6.46875 17.71875,6.31875 C17.64375,6.15 17.625,5.98125 17.625,5.75625 C17.625,5.56875 17.6625,5.4 17.75625,5.23125 C17.85,5.0625 18,4.89375 18.225,4.7625 C18.45,4.63125 18.73125,4.5 19.0875,4.40625 C19.44375,4.3125 19.89375,4.275 20.4375,4.275 L20.4375,3.99375 C20.4375,3.675 20.3625,3.43125 20.23125,3.28125 C20.1,3.13125 19.9125,3.05625 19.65,3.05625 C19.4625,3.05625 19.3125,3.075 19.18125,3.1125 C19.05,3.15 18.95625,3.20625 18.8625,3.2625 C18.76875,3.31875 18.69375,3.35625 18.61875,3.4125 C18.54375,3.45 18.45,3.46875 18.35625,3.46875 C18.28125,3.46875 18.20625,3.45 18.15,3.4125 C18.09375,3.375 18.05625,3.31875 18.01875,3.2625 L17.8125,2.90625 C18.35625,2.4 19.0125,2.15625 19.78125,2.15625 C20.0625,2.15625 20.30625,2.19375 20.5125,2.2875 C20.7375,2.38125 20.90625,2.5125 21.05625,2.6625 C21.20625,2.83125 21.31875,3.01875 21.39375,3.24375 C21.46875,3.46875 21.50625,3.7125 21.50625,3.975 L21.50625,6.95625 L21.54375,6.95625 L21.54375,6.95625 Z M19.33125,6.24375 C19.44375,6.24375 19.55625,6.225 19.65,6.20625 C19.74375,6.1875 19.8375,6.15 19.93125,6.1125 C20.025,6.075 20.1,6.01875 20.19375,5.9625 C20.26875,5.90625 20.3625,5.83125 20.4375,5.7375 L20.4375,4.95 C20.1,4.95 19.8375,4.96875 19.6125,5.00625 C19.3875,5.04375 19.21875,5.1 19.06875,5.175 C18.9375,5.23125 18.84375,5.325 18.7875,5.4 C18.73125,5.49375 18.69375,5.5875 18.69375,5.68125 C18.69375,5.8875 18.75,6.01875 18.8625,6.1125 C18.975,6.20625 19.14375,6.24375 19.33125,6.24375 L19.33125,6.24375 L19.33125,6.24375 Z"></path>
                                    <path d="M23.4,0.1125 L23.4,6.95625 L22.25625,6.95625 L22.25625,0.1125 L23.4,0.1125 L23.4,0.1125 L23.4,0.1125 Z"></path>
                                    <path d="M30.675,3.61875 C30.675,4.10625 30.6,4.55625 30.43125,4.96875 C30.2625,5.38125 30.0375,5.7375 29.7375,6.05625 C29.4375,6.35625 29.08125,6.6 28.66875,6.76875 C28.25625,6.9375 27.7875,7.03125 27.3,7.03125 C26.8125,7.03125 26.34375,6.9375 25.9125,6.76875 C25.5,6.6 25.14375,6.35625 24.84375,6.05625 C24.54375,5.75625 24.31875,5.4 24.15,4.96875 C23.98125,4.55625 23.90625,4.10625 23.90625,3.61875 C23.90625,3.13125 23.98125,2.68125 24.15,2.26875 C24.31875,1.85625 24.54375,1.5 24.84375,1.18125 C25.14375,0.88125 25.5,0.6375 25.9125,0.46875 C26.325,0.3 26.79375,0.20625 27.3,0.20625 C27.80625,0.20625 28.25625,0.3 28.66875,0.46875 C29.08125,0.6375 29.4375,0.88125 29.7375,1.18125 C30.0375,1.48125 30.2625,1.8375 30.43125,2.25 C30.6,2.68125 30.675,3.13125 30.675,3.61875 L30.675,3.61875 L30.675,3.61875 Z M29.41875,3.61875 C29.41875,3.2625 29.3625,2.925 29.26875,2.64375 C29.175,2.3625 29.025,2.1 28.85625,1.9125 C28.66875,1.70625 28.4625,1.55625 28.2,1.44375 C27.9375,1.33125 27.65625,1.275 27.31875,1.275 C26.98125,1.275 26.7,1.33125 26.4375,1.44375 C26.175,1.55625 25.95,1.70625 25.78125,1.9125 C25.59375,2.11875 25.4625,2.3625 25.36875,2.64375 C25.275,2.925 25.21875,3.2625 25.21875,3.61875 C25.21875,3.975 25.275,4.3125 25.36875,4.59375 C25.4625,4.875 25.6125,5.1375 25.78125,5.325 C25.96875,5.53125 26.19375,5.68125 26.4375,5.79375 C26.7,5.90625 27,5.9625 27.31875,5.9625 C27.6375,5.9625 27.9375,5.90625 28.2,5.79375 C28.4625,5.68125 28.6875,5.53125 28.85625,5.325 C29.04375,5.11875 29.175,4.875 29.26875,4.59375 C29.3625,4.3125 29.41875,3.99375 29.41875,3.61875 L29.41875,3.61875 L29.41875,3.61875 Z"></path>
                                    <path d="M34.44375,3.225 L34.35,3.31875 C34.3125,3.3375 34.275,3.35625 34.21875,3.35625 C34.1625,3.35625 34.10625,3.3375 34.05,3.3 C33.99375,3.2625 33.9375,3.225 33.84375,3.1875 C33.76875,3.15 33.675,3.09375 33.5625,3.075 C33.45,3.0375 33.31875,3.01875 33.16875,3.01875 C32.9625,3.01875 32.79375,3.05625 32.64375,3.13125 C32.49375,3.20625 32.3625,3.3 32.26875,3.45 C32.175,3.58125 32.1,3.75 32.04375,3.9375 C31.9875,4.125 31.96875,4.35 31.96875,4.59375 C31.96875,4.8375 31.9875,5.0625 32.04375,5.26875 C32.1,5.45625 32.175,5.625 32.26875,5.75625 C32.3625,5.8875 32.49375,6 32.64375,6.05625 C32.79375,6.13125 32.94375,6.16875 33.13125,6.16875 C33.31875,6.16875 33.45,6.15 33.5625,6.09375 C33.675,6.05625 33.76875,6 33.84375,5.94375 C33.91875,5.8875 33.99375,5.85 34.05,5.79375 C34.10625,5.75625 34.1625,5.71875 34.2375,5.71875 C34.33125,5.71875 34.40625,5.75625 34.44375,5.83125 L34.7625,6.24375 C34.63125,6.39375 34.5,6.50625 34.35,6.61875 C34.2,6.7125 34.05,6.80625 33.9,6.8625 C33.75,6.91875 33.58125,6.95625 33.4125,6.99375 C33.24375,7.0125 33.075,7.03125 32.90625,7.03125 C32.60625,7.03125 32.34375,6.975 32.08125,6.8625 C31.81875,6.75 31.59375,6.6 31.40625,6.39375 C31.21875,6.1875 31.06875,5.925 30.95625,5.625 C30.84375,5.325 30.7875,4.9875 30.7875,4.59375 C30.7875,4.25625 30.84375,3.91875 30.9375,3.6375 C31.03125,3.3375 31.18125,3.09375 31.36875,2.86875 C31.55625,2.64375 31.8,2.475 32.08125,2.3625 C32.3625,2.23125 32.7,2.175 33.075,2.175 C33.43125,2.175 33.73125,2.23125 33.99375,2.34375 C34.25625,2.45625 34.5,2.625 34.70625,2.83125 L34.44375,3.225 L34.44375,3.225 L34.44375,3.225 Z"></path>
                                    <path d="M37.0125,2.15625 C37.3125,2.15625 37.575,2.2125 37.8375,2.30625 C38.08125,2.4 38.30625,2.53125 38.49375,2.71875 C38.68125,2.90625 38.8125,3.13125 38.925,3.39375 C39.01875,3.65625 39.075,3.95625 39.075,4.29375 C39.075,4.3875 39.075,4.44375 39.05625,4.5 C39.05625,4.55625 39.0375,4.59375 39.01875,4.63125 C39,4.66875 38.98125,4.6875 38.94375,4.70625 C38.90625,4.725 38.86875,4.725 38.8125,4.725 L35.8875,4.725 C35.925,5.2125 36.05625,5.56875 36.28125,5.79375 C36.50625,6.01875 36.80625,6.13125 37.18125,6.13125 C37.36875,6.13125 37.51875,6.1125 37.65,6.075 C37.78125,6.0375 37.89375,5.98125 38.00625,5.925 C38.1,5.86875 38.19375,5.83125 38.26875,5.775 C38.34375,5.7375 38.41875,5.71875 38.49375,5.71875 C38.53125,5.71875 38.5875,5.71875 38.60625,5.7375 C38.64375,5.75625 38.6625,5.775 38.7,5.8125 L39.0375,6.225 C38.90625,6.375 38.775,6.4875 38.60625,6.6 C38.45625,6.69375 38.2875,6.7875 38.11875,6.84375 C37.95,6.9 37.78125,6.9375 37.59375,6.975 C37.425,6.99375 37.2375,7.0125 37.0875,7.0125 C36.75,7.0125 36.45,6.95625 36.16875,6.84375 C35.8875,6.73125 35.64375,6.58125 35.4375,6.35625 C35.23125,6.15 35.0625,5.8875 34.95,5.56875 C34.8375,5.25 34.7625,4.89375 34.7625,4.48125 C34.7625,4.1625 34.81875,3.8625 34.9125,3.58125 C35.025,3.3 35.175,3.05625 35.3625,2.83125 C35.55,2.625 35.79375,2.45625 36.075,2.325 C36.3375,2.2125 36.65625,2.15625 37.0125,2.15625 L37.0125,2.15625 L37.0125,2.15625 Z M37.03125,2.98125 C36.69375,2.98125 36.43125,3.075 36.2625,3.2625 C36.075,3.45 35.9625,3.7125 35.90625,4.05 L38.04375,4.05 C38.04375,3.9 38.025,3.76875 37.9875,3.6375 C37.95,3.50625 37.89375,3.39375 37.8,3.3 C37.725,3.20625 37.6125,3.13125 37.48125,3.075 C37.35,3 37.2,2.98125 37.03125,2.98125 L37.03125,2.98125 L37.03125,2.98125 Z"></path>
                                    <path d="M43.21875,6.95625 L42.7125,6.95625 C42.6,6.95625 42.525,6.9375 42.45,6.9 C42.39375,6.8625 42.3375,6.80625 42.31875,6.7125 L42.225,6.375 C42.1125,6.4875 41.98125,6.58125 41.86875,6.65625 C41.75625,6.73125 41.64375,6.80625 41.5125,6.8625 C41.38125,6.91875 41.25,6.95625 41.11875,6.99375 C40.9875,7.0125 40.81875,7.03125 40.65,7.03125 C40.44375,7.03125 40.275,7.0125 40.10625,6.95625 C39.9375,6.9 39.7875,6.825 39.675,6.7125 C39.5625,6.6 39.45,6.46875 39.39375,6.31875 C39.31875,6.15 39.3,5.98125 39.3,5.75625 C39.3,5.56875 39.3375,5.4 39.43125,5.23125 C39.525,5.0625 39.675,4.89375 39.9,4.7625 C40.125,4.63125 40.40625,4.5 40.7625,4.40625 C41.11875,4.3125 41.56875,4.275 42.1125,4.275 L42.1125,3.99375 C42.1125,3.675 42.0375,3.43125 41.90625,3.28125 C41.775,3.13125 41.5875,3.05625 41.325,3.05625 C41.1375,3.05625 40.9875,3.075 40.85625,3.1125 C40.725,3.15 40.63125,3.20625 40.5375,3.2625 C40.44375,3.31875 40.36875,3.35625 40.29375,3.4125 C40.21875,3.45 40.125,3.46875 40.05,3.46875 C39.975,3.46875 39.9,3.45 39.84375,3.4125 C39.7875,3.375 39.75,3.31875 39.7125,3.2625 L39.50625,2.90625 C40.05,2.4 40.70625,2.15625 41.475,2.15625 C41.75625,2.15625 42,2.19375 42.20625,2.2875 C42.43125,2.38125 42.6,2.5125 42.75,2.6625 C42.9,2.83125 43.0125,3.01875 43.0875,3.24375 C43.1625,3.46875 43.2,3.7125 43.2,3.975 L43.2,6.95625 L43.21875,6.95625 L43.21875,6.95625 Z M41.025,6.24375 C41.1375,6.24375 41.25,6.225 41.34375,6.20625 C41.4375,6.1875 41.53125,6.15 41.625,6.1125 C41.71875,6.075 41.79375,6.01875 41.8875,5.9625 C41.9625,5.90625 42.05625,5.83125 42.13125,5.7375 L42.13125,4.95 C41.79375,4.95 41.53125,4.96875 41.30625,5.00625 C41.08125,5.04375 40.9125,5.1 40.7625,5.175 C40.63125,5.23125 40.5375,5.325 40.48125,5.4 C40.425,5.49375 40.3875,5.5875 40.3875,5.68125 C40.3875,5.8875 40.44375,6.01875 40.55625,6.1125 C40.66875,6.20625 40.81875,6.24375 41.025,6.24375 L41.025,6.24375 L41.025,6.24375 Z"></path>
                                    <path d="M43.875,6.95625 L43.875,2.23125 L44.56875,2.23125 C44.71875,2.23125 44.8125,2.30625 44.85,2.4375 L44.925,2.8125 C45.01875,2.71875 45.1125,2.625 45.225,2.55 C45.3375,2.475 45.45,2.4 45.5625,2.34375 C45.675,2.2875 45.80625,2.25 45.9375,2.2125 C46.06875,2.175 46.21875,2.175 46.3875,2.175 C46.65,2.175 46.875,2.2125 47.08125,2.30625 C47.2875,2.4 47.45625,2.5125 47.5875,2.68125 C47.71875,2.83125 47.83125,3.01875 47.8875,3.24375 C47.9625,3.46875 48,3.7125 48,3.975 L48,6.975 L46.85625,6.975 L46.85625,3.975 C46.85625,3.69375 46.78125,3.46875 46.65,3.3 C46.51875,3.15 46.3125,3.05625 46.05,3.05625 C45.8625,3.05625 45.675,3.09375 45.50625,3.1875 C45.3375,3.28125 45.16875,3.39375 45.01875,3.54375 L45.01875,6.95625 L43.875,6.95625 L43.875,6.95625 L43.875,6.95625 Z"></path>
                                </g>
                            </g>
                        </g>
                        <text id="Deployment" font-family="SourceSansPro-Regular, Source Sans Pro" font-size="18" font-weight="normal" fill="#000000">
                            <tspan x="0.276" y="18">Deployment</tspan>
                        </text>
                    </g>
                </g>
            </g>
        </g>
    </g>
</svg>